<svg xmlns="http://www.w3.org/2000/svg" viewBox="0 0 32.03 32"><defs><style>.cls-1{fill:#21c6da;}.cls-2{fill:#fff;}.cls-3{fill:#1399a3;}</style></defs><title>convertButton</title><g id="Layer_2" data-name="Layer 2"><g id="convertButton"><path class="cls-1" d="M15.61,6.8a9.6,9.6,0,1,0,9.6,9.6A9.6,9.6,0,0,0,15.61,6.8Zm9.16,9.69h0c0,2.18-2.07,5.74-2.08,5.72a9.14,9.14,0,0,1-7,3.34h-.18a9.14,9.14,0,0,1-6.92-3.34l0,0a9.12,9.12,0,0,1-2.05-5.76h0V16.4a9.16,9.16,0,0,1,9-9.16h.17a9.16,9.16,0,0,1,9.13,9.16v.07h0Z"/><path class="cls-1" d="M8.55,22.19l0,0a9.14,9.14,0,0,0,6.92,3.34,9.13,9.13,0,0,1-6.91-3.36Z"/><path class="cls-2" d="M15.46,25.64a9.23,9.23,0,0,1-7-3.38l0-.06.13-.16.07.08a9,9,0,0,0,6.84,3.33Z"/><path class="cls-1" d="M15.61,7.24h0Z"/><path class="cls-2" d="M15.58,7.33V7.15h0v.18Z"/><path class="cls-1" d="M21.53,11.93a10.88,10.88,0,0,0-3.44-4.33,9.32,9.32,0,0,1,6.68,8.84v0a9.16,9.16,0,0,0-9.13-9.16v6.85A9.12,9.12,0,0,0,21.53,11.93Z"/><path class="cls-2" d="M24.68,16.44a9.24,9.24,0,0,0-6.16-8.61,11,11,0,0,1,3.08,4.06l0,.06-.05,0a9.25,9.25,0,0,1-5.94,2.19h-.09v-7h.09a9.25,9.25,0,0,1,9.22,9.25v0Zm-9-9.11V14a9.08,9.08,0,0,0,5.69-2.1A10.8,10.8,0,0,0,18,7.67l0,0A9.11,9.11,0,0,0,15.73,7.33Z"/><path class="cls-1" d="M13.64,7.46a9.18,9.18,0,0,1,1.83-.22,9.16,9.16,0,0,0-9,9.16v0a9.28,9.28,0,0,1,7.18-9Z"/><path class="cls-2" d="M6.54,16.44H6.37v0a9.25,9.25,0,0,1,9.1-9.25v.18a9.12,9.12,0,0,0-1.81.22h0a9.19,9.19,0,0,0-7.11,8.89Z"/><path class="cls-1" d="M17.56,25.34a10.89,10.89,0,0,0,3.84-4.41,9.12,9.12,0,0,0-5.75-2.06v6.69a9.14,9.14,0,0,0,7-3.34l0,0A9.16,9.16,0,0,1,17.56,25.34Z"/><path class="cls-2" d="M15.55,25.65V18.78h.09a9.21,9.21,0,0,1,5.81,2.08l.05,0,0,.06A11,11,0,0,1,18,25.13a9.12,9.12,0,0,0,4.58-3l.07-.08.15.18,0,.06a9.22,9.22,0,0,1-5.6,3.25h0a9.3,9.3,0,0,1-1.47.12ZM15.73,19v6.51a9.1,9.1,0,0,0,1.76-.2h0a10.79,10.79,0,0,0,3.78-4.31,9,9,0,0,0-5.55-2Z"/><path class="cls-1" d="M15.61,25.56h0Z"/><path class="cls-2" d="M15.61,25.65h-.07v-.18h.08v.18Z"/><path class="cls-1" d="M9.75,12a10.89,10.89,0,0,1,3.88-4.51,9.17,9.17,0,0,0-6.7,6.07,9.14,9.14,0,0,1,1.56-2.82A9.22,9.22,0,0,0,9.75,12Z"/><path class="cls-2" d="M7,13.56l-.17-.06a9.26,9.26,0,0,1,6.76-6.13l.47-.11-.4.27A10.78,10.78,0,0,0,9.83,12l0,.1L9.7,12a9.33,9.33,0,0,1-1.19-1.19A9,9,0,0,0,7,13.56ZM8.6,10.69a9.15,9.15,0,0,0,1.12,1.14,11,11,0,0,1,3.46-4.17A9.11,9.11,0,0,0,8.6,10.69Z"/><path class="cls-1" d="M8.55,22.19a9.17,9.17,0,0,0,4.56,3A10.88,10.88,0,0,1,9.73,21,9.22,9.22,0,0,0,8.55,22.19Z"/><path class="cls-2" d="M13.55,25.42l-.46-.13a9.21,9.21,0,0,1-4.6-3l0-.06,0-.06a9.33,9.33,0,0,1,1.19-1.2l.09-.07,0,.11a10.82,10.82,0,0,0,3.35,4.16ZM8.67,22.19a9,9,0,0,0,4,2.78,11,11,0,0,1-3-3.82A9.16,9.16,0,0,0,8.67,22.19Z"/><path class="cls-1" d="M15.55,25.56h0Z"/><path class="cls-2" d="M15.54,25.64h-.09v-.18h.09Z"/><path class="cls-1" d="M15.64,7.24h0Z"/><polygon class="cls-2" points="15.73 7.33 15.62 7.33 15.62 7.24 15.55 7.24 15.62 7.24 15.62 7.15 15.73 7.15 15.73 7.33"/><path class="cls-1" d="M15.47,7.24h0Z"/><path class="cls-2" d="M15.47,7.33V7.15h.11v.18h-.11Z"/><path class="cls-1" d="M15.64,25.56h0Z"/><polygon class="cls-2" points="15.64 25.64 15.63 25.64 15.63 25.56 15.55 25.56 15.63 25.56 15.63 25.47 15.73 25.47 15.73 25.64 15.64 25.64"/><path class="cls-1" d="M15.61,18.87A9.12,9.12,0,0,0,9.73,21a10.88,10.88,0,0,0,3.38,4.2,9.15,9.15,0,0,0,2.35.35h.18V18.87Z"/><path class="cls-2" d="M15.63,25.65h-.17a9.26,9.26,0,0,1-2.37-.36h0A11,11,0,0,1,9.65,21l0-.06.05,0a9.25,9.25,0,0,1,5.94-2.16h.12v6.87Zm-2.48-.52a9.08,9.08,0,0,0,2.31.35h.09V19A9.08,9.08,0,0,0,9.84,21,10.82,10.82,0,0,0,13.15,25.12Z"/><path class="cls-1" d="M9.75,12a9.12,9.12,0,0,0,5.86,2.12h0V7.24h-.17a9.18,9.18,0,0,0-1.83.22A10.89,10.89,0,0,0,9.75,12Z"/><path class="cls-2" d="M15.61,14.18A9.21,9.21,0,0,1,9.7,12l-.05,0,0-.06a11,11,0,0,1,3.91-4.55h0a9.3,9.3,0,0,1,1.85-.22h.26v7ZM9.86,11.95A9,9,0,0,0,15.55,14V7.33h-.08a9.12,9.12,0,0,0-1.8.21A10.78,10.78,0,0,0,9.86,11.95Z"/><polygon class="cls-3" points="6.46 16.49 6.46 16.49 6.46 16.48 6.46 16.49"/><polygon class="cls-2" points="6.54 16.58 6.37 16.58 6.37 16.49 6.37 16.48 6.37 16.48 6.46 16.48 6.46 16.4 6.46 16.48 6.54 16.48 6.54 16.58"/><path class="cls-3" d="M24.77,16.47v0Z"/><polygon class="cls-2" points="24.86 16.56 24.68 16.56 24.68 16.44 24.77 16.44 24.77 16.38 24.77 16.44 24.86 16.44 24.86 16.56"/><polygon class="cls-3" points="24.77 16.49 24.77 16.48 24.77 16.49 24.77 16.49"/><polygon class="cls-2" points="24.86 16.58 24.68 16.58 24.68 16.48 24.77 16.48 24.77 16.4 24.77 16.48 24.86 16.48 24.86 16.58"/><path class="cls-3" d="M6.46,16.44v0h0Z"/><polygon class="cls-2" points="6.54 16.56 6.37 16.56 6.37 16.47 6.37 16.44 6.46 16.44 6.46 16.38 6.46 16.44 6.54 16.44 6.54 16.56"/><path class="cls-3" d="M6.48,16.47V16.4a9.15,9.15,0,0,1,.46-2.86,9.14,9.14,0,0,0-.49,2.9v0Z"/><path class="cls-2" d="M6.57,16.56H6.37v-.12a9.23,9.23,0,0,1,.49-2.93l.17.06a9.06,9.06,0,0,0-.45,2.84v.16Z"/><path class="cls-1" d="M22.44,16.47q0-.1,0-.19a10.81,10.81,0,0,0-.91-4.35,9.12,9.12,0,0,1-5.89,2.17v2.38Z"/><path class="cls-2" d="M22.52,16.56h-7V14h.09a9.07,9.07,0,0,0,5.83-2.15l.09-.08,0,.11a10.85,10.85,0,0,1,.92,4.39q0,.1,0,.19Zm-6.79-.18h6.62v-.1a10.68,10.68,0,0,0-.86-4.21,9.25,9.25,0,0,1-5.76,2.11Z"/><path class="cls-3" d="M24.71,16.4v.07h.06v0a9.11,9.11,0,0,0-1.53-5A9.11,9.11,0,0,1,24.71,16.4Z"/><path class="cls-2" d="M24.86,16.56h-.24V16.4a9,9,0,0,0-1.46-4.93l.15-.1a9.21,9.21,0,0,1,1.54,5.07Z"/><path class="cls-1" d="M9.75,12a9.22,9.22,0,0,1-1.25-1.26,8.86,8.86,0,0,0-2,5.69v.07H8.76A10.8,10.8,0,0,1,9.75,12Z"/><path class="cls-2" d="M8.85,16.56H6.4V16.4a8.95,8.95,0,0,1,2-5.74l.07-.08.07.08a9.15,9.15,0,0,0,1.24,1.25l.05,0,0,.06a10.66,10.66,0,0,0-1,4.46Zm-2.27-.18h2.1a10.84,10.84,0,0,1,1-4.39,9.33,9.33,0,0,1-1.14-1.15,8.76,8.76,0,0,0-1.93,5.53Z"/><path class="cls-1" d="M15.64,16.47V14.09h0A9.12,9.12,0,0,1,9.75,12a10.8,10.8,0,0,0-1,4.5Z"/><path class="cls-2" d="M15.73,16.56H8.67v-.09a10.84,10.84,0,0,1,1-4.54l0-.1.09.07a9,9,0,0,0,5.8,2.1h.12Zm-6.88-.18h6.71v-2.2a9.21,9.21,0,0,1-5.77-2.07A10.66,10.66,0,0,0,8.85,16.38Z"/><path class="cls-3" d="M8.54,22.21a9.12,9.12,0,0,1-2.08-5.72h0"/><path class="cls-2" d="M8.47,22.27a9.21,9.21,0,0,1-2.1-5.78h.09V16.4h.09v.09A9,9,0,0,0,8.6,22.16Z"/><polygon class="cls-3" points="6.46 16.47 6.46 16.48 6.46 16.47 6.46 16.47"/><polygon class="cls-2" points="6.46 16.56 6.46 16.48 6.37 16.48 6.37 16.38 6.54 16.38 6.54 16.48 6.46 16.48 6.46 16.56"/><path class="cls-3" d="M24.77,16.49a9.12,9.12,0,0,1-2.08,5.72"/><path class="cls-2" d="M22.76,22.27l-.14-.11a9,9,0,0,0,2.06-5.67h.18a9.21,9.21,0,0,1-2.1,5.78Z"/><polygon class="cls-3" points="24.77 16.47 24.77 16.48 24.77 16.47 24.77 16.47"/><polygon class="cls-2" points="24.77 16.56 24.77 16.48 24.68 16.48 24.68 16.38 24.86 16.38 24.86 16.48 24.77 16.48 24.77 16.56"/><path class="cls-3" d="M6.49,16.49h0a9.12,9.12,0,0,0,2.08,5.72l0,0A9.12,9.12,0,0,1,6.49,16.49Z"/><path class="cls-2" d="M8.54,22.35l-.07-.08a9.21,9.21,0,0,1-2.1-5.78V16.4h.21v.09a9,9,0,0,0,2,5.65l0,.06Z"/><path class="cls-1" d="M15.64,16.49v2.38a9.12,9.12,0,0,1,5.75,2.06,10.79,10.79,0,0,0,1-4.44Z"/><path class="cls-2" d="M21.43,21.06,21.34,21a9,9,0,0,0-5.7-2h-.09V16.4h7v.09a10.83,10.83,0,0,1-1,4.47Zm-5.7-2.29a9.21,9.21,0,0,1,5.63,2,10.65,10.65,0,0,0,1-4.21H15.73Z"/><path class="cls-1" d="M8.76,16.49H6.49a9.12,9.12,0,0,0,2.07,5.71A9.22,9.22,0,0,1,9.73,21a10.8,10.8,0,0,1-1-4.49Z"/><path class="cls-2" d="M8.55,22.33l-.07-.08A9.21,9.21,0,0,1,6.4,16.49V16.4H8.85v.12a10.67,10.67,0,0,0,1,4.45l0,.06-.05,0a9.15,9.15,0,0,0-1.17,1.18Zm-2-5.76a9,9,0,0,0,2,5.48A9.33,9.33,0,0,1,9.62,21a10.84,10.84,0,0,1-1-4.41Z"/><path class="cls-1" d="M8.76,16.49v0a10.8,10.8,0,0,0,1,4.49,9.12,9.12,0,0,1,5.88-2.14h0V16.49Z"/><path class="cls-2" d="M9.7,21.15l0-.11a10.84,10.84,0,0,1-1-4.53V16.4h7.06V19h-.12a9.08,9.08,0,0,0-5.83,2.12Zm-.85-4.57a10.66,10.66,0,0,0,.91,4.29,9.26,9.26,0,0,1,5.79-2.09v-2.2Z"/><path class="cls-3" d="M24.77,16.47h0Z"/><polygon class="cls-2" points="24.77 16.58 24.68 16.58 24.68 16.38 24.86 16.38 24.86 16.57 24.77 16.58"/><path class="cls-3" d="M6.46,16.47h0Z"/><polygon class="cls-2" points="6.54 16.58 6.37 16.58 6.37 16.48 6.37 16.39 6.46 16.38 6.54 16.38 6.54 16.58"/><path class="cls-3" d="M24.71,16.49h0Z"/><polygon class="cls-2" points="24.86 16.58 24.62 16.58 24.62 16.38 24.86 16.38 24.86 16.58"/><path class="cls-3" d="M15.64,16.49h0Z"/><rect class="cls-2" x="15.55" y="16.38" width="6.97" height="0.19"/><path class="cls-3" d="M6.46,16.47h0Z"/><polygon class="cls-2" points="6.58 16.58 6.37 16.58 6.37 16.38 6.57 16.38 6.58 16.58"/><path class="cls-3" d="M8.76,16.47h0Z"/><polygon class="cls-2" points="8.85 16.58 6.4 16.58 6.4 16.38 8.85 16.38 8.85 16.58"/><path class="cls-3" d="M8.76,16.47h0Z"/><rect class="cls-2" x="8.67" y="16.38" width="7.06" height="0.19"/><path class="cls-1" d="M21.4,20.92a10.89,10.89,0,0,1-3.84,4.41,9.16,9.16,0,0,0,5.1-3.16A9.22,9.22,0,0,0,21.4,20.92Z"/><path class="cls-2" d="M17.11,25.53l.4-.27a10.79,10.79,0,0,0,3.81-4.38l0-.1.09.07a9.33,9.33,0,0,1,1.28,1.26l0,.06,0,.06a9.28,9.28,0,0,1-5.15,3.19Zm4.32-4.46A11,11,0,0,1,18,25.13a9.12,9.12,0,0,0,4.53-3A9.15,9.15,0,0,0,21.43,21.06Z"/><path class="cls-1" d="M22.72,10.71q.28.34.52.71a9.18,9.18,0,0,0-5.16-3.82,10.88,10.88,0,0,1,3.44,4.33A9.22,9.22,0,0,0,22.72,10.71Z"/><path class="cls-2" d="M21.49,12.07l0-.11A10.8,10.8,0,0,0,18,7.67l-.39-.29.46.13a9.25,9.25,0,0,1,5.21,3.86l-.15.1c-.14-.21-.29-.42-.45-.62A9.33,9.33,0,0,1,21.59,12Zm-3-4.24a11,11,0,0,1,3,4,9.15,9.15,0,0,0,1.05-1.08A9.07,9.07,0,0,0,18.53,7.83Z"/><path class="cls-1" d="M22.44,16.47h2.28V16.4a9.11,9.11,0,0,0-1.47-5q-.24-.37-.52-.71a9.22,9.22,0,0,1-1.19,1.22,10.81,10.81,0,0,1,.91,4.35Q22.44,16.38,22.44,16.47Z"/><path class="cls-2" d="M24.8,16.56H22.35v-.09q0-.1,0-.19a10.68,10.68,0,0,0-.9-4.32l0-.06.05,0a9.15,9.15,0,0,0,1.18-1.2l.07-.08.07.08c.18.23.36.47.53.72a9.21,9.21,0,0,1,1.49,5v.16Zm-2.27-.18h2.1a9,9,0,0,0-1.46-4.92c-.14-.21-.29-.42-.45-.62A9.33,9.33,0,0,1,21.64,12a10.85,10.85,0,0,1,.89,4.33Z"/><path class="cls-1" d="M21.4,20.92a9.22,9.22,0,0,1,1.26,1.25,9.12,9.12,0,0,0,2.05-5.69H22.44A10.79,10.79,0,0,1,21.4,20.92Z"/><path class="cls-2" d="M22.66,22.31l-.07-.08A9.15,9.15,0,0,0,21.34,21l-.05,0,0-.06a10.66,10.66,0,0,0,1-4.4V16.4H24.8v.09a9.21,9.21,0,0,1-2.07,5.74ZM21.51,20.9A9.33,9.33,0,0,1,22.66,22a9,9,0,0,0,2-5.46h-2.1A10.83,10.83,0,0,1,21.51,20.9Z"/><path class="cls-1" d="M15.33,32A14.46,14.46,0,0,1,2.26,23.85l1-.47a13.48,13.48,0,0,0,24.21,0l1,.47A14.46,14.46,0,0,1,15.33,32Z"/><path class="cls-1" d="M28.22,10.51a13.48,13.48,0,0,0-25.72,0l-1-.32a14.55,14.55,0,0,1,27.76,0Z"/><polygon class="cls-1" points="29.36 13.66 25.27 10.99 32.03 9.56 29.36 13.66"/><polygon class="cls-1" points="1.45 21.15 6.12 22.6 0 25.82 1.45 21.15"/></g></g></svg>