<svg xmlns="http://www.w3.org/2000/svg" viewBox="0 0 31.96 31.96"><defs><style>.cls-1{fill:#21c6da;}.cls-2,.cls-4{fill:#fff;}.cls-3{fill:#1399a3;}.cls-4{font-size:6.59px;font-family:Roboto-Bold, Roboto;font-weight:700;}</style></defs><title>logo</title><g id="Layer_2" data-name="Layer 2"><g id="logo"><path class="cls-1" d="M16,0A16,16,0,1,0,32,16,16,16,0,0,0,16,0ZM31.22,16.13h0c0,3.63-3.45,9.55-3.46,9.53A15.21,15.21,0,0,1,16,31.22h-.3A15.21,15.21,0,0,1,4.2,25.65l-.05.06A15.18,15.18,0,0,1,.74,16.13h0V16A15.24,15.24,0,0,1,15.74.74H16A15.24,15.24,0,0,1,31.22,16v.12h0Z"/><path class="cls-1" d="M4.23,25.62l0,0a15.21,15.21,0,0,0,11.52,5.56,15.2,15.2,0,0,1-11.5-5.59Z"/><path class="cls-2" d="M15.72,31.36A15.37,15.37,0,0,1,4.09,25.74L4,25.65l.22-.26.11.14a15,15,0,0,0,11.39,5.54Z"/><path class="cls-1" d="M16,.74h0Z"/><path class="cls-2" d="M15.92.89V.59H16V.89Z"/><path class="cls-1" d="M25.82,8.54a18.11,18.11,0,0,0-5.73-7.21,15.27,15.27,0,0,1,8.58,6.36A15.16,15.16,0,0,1,31.22,16V16A15.24,15.24,0,0,0,16,.74v11.4A15.18,15.18,0,0,0,25.82,8.54Z"/><path class="cls-2" d="M31.07,16a15,15,0,0,0-2.52-8.27,15.12,15.12,0,0,0-7.72-6.06A18.27,18.27,0,0,1,26,8.48l0,.1-.08.07A15.4,15.4,0,0,1,16,12.29h-.15V.59H16A15.39,15.39,0,0,1,31.37,16V16ZM16.17.89V12a15.1,15.1,0,0,0,9.47-3.5,18,18,0,0,0-5.64-7l0,0A15.16,15.16,0,0,0,16.17.89Z"/><path class="cls-1" d="M12.69,1.11a15.28,15.28,0,0,1,3-.36A15.24,15.24,0,0,0,.74,16V16a15.44,15.44,0,0,1,12-14.94Z"/><path class="cls-2" d="M.89,16H.59V16A15.39,15.39,0,0,1,15.74.59V.89a15.18,15.18,0,0,0-3,.36h0A15.29,15.29,0,0,0,.89,16Z"/><path class="cls-1" d="M19.22,30.85a18.12,18.12,0,0,0,6.38-7.34A15.17,15.17,0,0,0,16,20.08V31.22a15.21,15.21,0,0,0,11.73-5.57l0-.06A15.24,15.24,0,0,1,19.22,30.85Z"/><path class="cls-2" d="M15.88,31.37V19.94H16a15.32,15.32,0,0,1,9.67,3.46l.09.07,0,.1A18.24,18.24,0,0,1,20,30.51a15.17,15.17,0,0,0,7.62-5l.11-.14.24.29-.08.09a15.35,15.35,0,0,1-9.31,5.4l-.09,0h0a15.48,15.48,0,0,1-2.45.2Zm.29-11.13V31.07a15.15,15.15,0,0,0,2.94-.33l0,0a18,18,0,0,0,6.28-7.18,15,15,0,0,0-9.24-3.32Z"/><path class="cls-1" d="M16,31.22h0Z"/><path class="cls-2" d="M16,31.37h-.11v-.29H16v.29Z"/><path class="cls-1" d="M6.23,8.62a18.12,18.12,0,0,1,6.46-7.51A15.27,15.27,0,0,0,1.55,11.21a15.22,15.22,0,0,1,2.6-4.7A15.34,15.34,0,0,0,6.23,8.62Z"/><path class="cls-2" d="M1.69,11.26l-.28-.09A15.41,15.41,0,0,1,12.66,1l.78-.17-.67.44A17.93,17.93,0,0,0,6.36,8.68l-.08.17-.15-.12a15.53,15.53,0,0,1-2-2A15,15,0,0,0,1.69,11.26ZM4.31,6.47A15.23,15.23,0,0,0,6.18,8.38a18.22,18.22,0,0,1,5.76-6.93A15.15,15.15,0,0,0,4.31,6.47Z"/><path class="cls-1" d="M4.23,25.62a15.25,15.25,0,0,0,7.59,5,18.11,18.11,0,0,1-5.63-7A15.34,15.34,0,0,0,4.23,25.62Z"/><path class="cls-2" d="M12.54,31l-.77-.22a15.32,15.32,0,0,1-7.66-5.05L4,25.62l.08-.09a15.52,15.52,0,0,1,2-2l.15-.12.08.18a18,18,0,0,0,5.58,6.93ZM4.42,25.62a15,15,0,0,0,6.66,4.62,18.3,18.3,0,0,1-4.95-6.36A15.24,15.24,0,0,0,4.42,25.62Z"/><path class="cls-1" d="M15.87,31.22h0Z"/><path class="cls-2" d="M15.86,31.36h-.14v-.29h.14Z"/><path class="cls-1" d="M16,.74h0Z"/><polygon class="cls-2" points="16.17 0.89 15.99 0.89 15.99 0.74 15.88 0.74 15.99 0.74 15.99 0.59 16.17 0.59 16.17 0.89"/><path class="cls-1" d="M15.74.74h0Z"/><path class="cls-2" d="M15.74.89V.59h.18V.89h-.18Z"/><path class="cls-1" d="M16,31.22h0Z"/><polygon class="cls-2" points="16.03 31.36 16 31.36 16 31.22 15.88 31.22 16 31.22 16 31.07 16.17 31.07 16.17 31.36 16.03 31.36"/><path class="cls-1" d="M16,20.08a15.18,15.18,0,0,0-9.79,3.56,18.11,18.11,0,0,0,5.63,7,15.23,15.23,0,0,0,3.91.59H16V20.08Z"/><path class="cls-2" d="M16,31.37h-.28a15.41,15.41,0,0,1-3.95-.59h0l0,0a18.29,18.29,0,0,1-5.67-7l0-.1.09-.07A15.4,15.4,0,0,1,16,19.94h.2V31.36Zm-4.12-.87a15.11,15.11,0,0,0,3.85.57h.15V20.23a15.1,15.1,0,0,0-9.51,3.46A18,18,0,0,0,11.88,30.49Z"/><path class="cls-1" d="M6.23,8.62A15.18,15.18,0,0,0,16,12.14h0V.74h-.29a15.28,15.28,0,0,0-3,.36A18.12,18.12,0,0,0,6.23,8.62Z"/><path class="cls-2" d="M16,12.29a15.33,15.33,0,0,1-5.33-.95A15.33,15.33,0,0,1,6.13,8.73L6,8.66l0-.1A18.23,18.23,0,0,1,12.61,1h0A15.47,15.47,0,0,1,15.74.59h.44v11.7ZM6.41,8.57a15,15,0,0,0,4.34,2.49,15,15,0,0,0,5.13.93V.89h-.14a15.18,15.18,0,0,0-3,.36A17.93,17.93,0,0,0,6.41,8.57Z"/><path class="cls-3" d="M.74,16.13h0Z"/><polygon class="cls-2" points="0.89 16.27 0.59 16.27 0.59 16.13 0.59 16.12 0.59 16.11 0.74 16.11 0.74 15.98 0.74 16.11 0.89 16.11 0.89 16.27"/><path class="cls-3" d="M31.22,16.1v0Z"/><polygon class="cls-2" points="31.36 16.25 31.07 16.25 31.07 16.05 31.22 16.05 31.22 15.95 31.22 16.05 31.36 16.05 31.36 16.25"/><path class="cls-3" d="M31.22,16.13h0Z"/><polygon class="cls-2" points="31.36 16.27 31.07 16.27 31.07 16.11 31.22 16.11 31.22 15.98 31.22 16.11 31.36 16.11 31.36 16.27"/><path class="cls-3" d="M.74,16v.05h0Z"/><polygon class="cls-2" points="0.89 16.25 0.59 16.25 0.59 16.1 0.59 16.05 0.74 16.05 0.74 15.95 0.74 16.05 0.89 16.05 0.89 16.25"/><path class="cls-3" d="M.79,16.1s0-.08,0-.12a15.22,15.22,0,0,1,.76-4.77A15.21,15.21,0,0,0,.74,16v.05Z"/><path class="cls-2" d="M.94,16.25H.59V16a15.36,15.36,0,0,1,.82-4.88l.28.09A15.08,15.08,0,0,0,.93,16v.27Z"/><path class="cls-1" d="M27.33,16.1q0-.16,0-.32a18,18,0,0,0-1.51-7.24A15.18,15.18,0,0,1,16,12.14v4Z"/><path class="cls-2" d="M27.48,16.25H15.88V12H16a15.1,15.1,0,0,0,9.7-3.57l.15-.13.08.18a18.06,18.06,0,0,1,1.53,7.3q0,.16,0,.32ZM16.17,16h11q0-.09,0-.17a17.77,17.77,0,0,0-1.42-7,15.4,15.4,0,0,1-9.59,3.51Z"/><path class="cls-3" d="M31.12,16s0,.08,0,.12h.1V16a15.16,15.16,0,0,0-2.54-8.35A15.17,15.17,0,0,1,31.12,16Z"/><path class="cls-2" d="M31.36,16.25H31V16a15,15,0,0,0-2.42-8.2l.25-.16A15.32,15.32,0,0,1,31.36,16Z"/><path class="cls-1" d="M6.23,8.62a15.34,15.34,0,0,1-2.08-2.1A14.74,14.74,0,0,0,.79,16s0,.08,0,.12H4.57A18,18,0,0,1,6.23,8.62Z"/><path class="cls-2" d="M4.72,16.25H.64V16A14.89,14.89,0,0,1,4,6.42l.11-.14.11.14A15.22,15.22,0,0,0,6.32,8.5l.09.07,0,.1A17.75,17.75,0,0,0,4.72,16.1ZM.93,16H4.43A18,18,0,0,1,6,8.66,15.52,15.52,0,0,1,4.15,6.75,14.58,14.58,0,0,0,.93,16Z"/><path class="cls-1" d="M16,16.1v-4h0A15.18,15.18,0,0,1,6.23,8.62,18,18,0,0,0,4.57,16.1Z"/><path class="cls-2" d="M16.17,16.25H4.42V16.1A18,18,0,0,1,6.09,8.55l.08-.17.15.12a15,15,0,0,0,4.43,2.56A15,15,0,0,0,16,12h.2ZM4.72,16H15.88V12.29a15.33,15.33,0,0,1-5.23-.95A15.33,15.33,0,0,1,6.28,8.85,17.73,17.73,0,0,0,4.72,16Z"/><path class="cls-3" d="M4.2,25.65A15.18,15.18,0,0,1,.74,16.13h0"/><path class="cls-2" d="M4.09,25.74a15.32,15.32,0,0,1-3.5-9.62H.74V16H.88v.15a15,15,0,0,0,3.43,9.43Z"/><path class="cls-3" d="M.74,16.1h0Z"/><polygon class="cls-2" points="0.74 16.25 0.74 16.11 0.59 16.11 0.59 15.95 0.89 15.95 0.89 16.11 0.74 16.11 0.74 16.25"/><path class="cls-3" d="M31.22,16.13a15.18,15.18,0,0,1-3.46,9.53"/><path class="cls-2" d="M27.87,25.74l-.23-.19a15,15,0,0,0,3.43-9.43h.29a15.32,15.32,0,0,1-3.5,9.62Z"/><path class="cls-3" d="M31.22,16.1h0Z"/><polygon class="cls-2" points="31.22 16.25 31.22 16.11 31.07 16.11 31.07 15.95 31.36 15.95 31.36 16.11 31.22 16.11 31.22 16.25"/><path class="cls-3" d="M.79,16.13h0A15.18,15.18,0,0,0,4.2,25.65l0,0A15.17,15.17,0,0,1,.79,16.13Z"/><path class="cls-2" d="M4.2,25.88l-.11-.14a15.32,15.32,0,0,1-3.5-9.62V16H.93v.15a15,15,0,0,0,3.4,9.4l.08.09Z"/><path class="cls-1" d="M16,16.13v4a15.17,15.17,0,0,1,9.57,3.42,18,18,0,0,0,1.73-7.38Z"/><path class="cls-2" d="M25.65,23.74l-.15-.12A15,15,0,0,0,16,20.23h-.15V16h11.6v.15a18,18,0,0,1-1.74,7.44Zm-9.48-3.8a15.32,15.32,0,0,1,9.37,3.34,17.73,17.73,0,0,0,1.63-7h-11Z"/><path class="cls-1" d="M4.57,16.13H.79a15.17,15.17,0,0,0,3.44,9.5,15.34,15.34,0,0,1,2-2,18,18,0,0,1-1.61-7.47Z"/><path class="cls-2" d="M4.23,25.85l-.11-.14A15.32,15.32,0,0,1,.64,16.13V16H4.72v.2a17.75,17.75,0,0,0,1.6,7.41l0,.1-.09.07a15.23,15.23,0,0,0-1.94,2ZM.94,16.27a15,15,0,0,0,3.29,9.12A15.53,15.53,0,0,1,6,23.6a18,18,0,0,1-1.58-7.33Z"/><path class="cls-1" d="M4.57,16.13v0a18,18,0,0,0,1.61,7.47A15.18,15.18,0,0,1,16,20.08h0v-4Z"/><path class="cls-2" d="M6.13,23.88l-.08-.18a18,18,0,0,1-1.63-7.53V16H16.17v4.25H16a15.1,15.1,0,0,0-9.7,3.53ZM4.72,16.27a17.75,17.75,0,0,0,1.52,7.13,15.4,15.4,0,0,1,9.64-3.47V16.27Z"/><path class="cls-3" d="M31.22,16.1v0h0Z"/><polygon class="cls-2" points="31.22 16.27 31.07 16.27 31.07 15.95 31.36 15.95 31.36 16.27 31.22 16.27"/><path class="cls-3" d="M.74,16.1h0Z"/><polygon class="cls-2" points="0.89 16.27 0.59 16.27 0.59 16.11 0.59 15.96 0.74 15.95 0.88 15.95 0.89 16.27"/><path class="cls-3" d="M31.12,16.13h.1v0h-.1Z"/><polygon class="cls-2" points="31.36 16.27 30.97 16.27 30.97 15.95 31.37 15.95 31.36 16.27"/><path class="cls-3" d="M16,16.13h11.3v0H16Z"/><rect class="cls-2" x="15.88" y="15.95" width="11.6" height="0.32"/><path class="cls-3" d="M.74,16.1v0h0v0Z"/><polygon class="cls-2" points="0.94 16.27 0.59 16.27 0.59 15.95 0.94 15.95 0.94 16.27"/><path class="cls-3" d="M4.57,16.1H.79v0H4.57Z"/><polygon class="cls-2" points="4.72 16.27 0.64 16.27 0.64 15.95 4.72 15.95 4.72 16.27"/><path class="cls-3" d="M4.57,16.1v0H16v0Z"/><rect class="cls-2" x="4.43" y="15.95" width="11.75" height="0.32"/><path class="cls-1" d="M25.6,23.51a18.12,18.12,0,0,1-6.38,7.34,15.24,15.24,0,0,0,8.49-5.26A15.34,15.34,0,0,0,25.6,23.51Z"/><path class="cls-2" d="M18.47,31.17l.67-.44a18,18,0,0,0,6.33-7.28l.08-.17.15.12a15.52,15.52,0,0,1,2.12,2.11l.08.09-.08.09A15.45,15.45,0,0,1,19.25,31Zm7.19-7.43A18.24,18.24,0,0,1,20,30.51a15.17,15.17,0,0,0,7.54-4.92A15.23,15.23,0,0,0,25.65,23.74Z"/><path class="cls-1" d="M27.8,6.51q.46.57.87,1.18a15.27,15.27,0,0,0-8.58-6.36,18.11,18.11,0,0,1,5.73,7.21A15.34,15.34,0,0,0,27.8,6.51Z"/><path class="cls-2" d="M25.77,8.78l-.08-.18A18,18,0,0,0,20,1.45L19.36,1l.77.22A15.4,15.4,0,0,1,28.8,7.61l-.25.16c-.24-.35-.49-.7-.75-1a15.53,15.53,0,0,1-1.89,1.9ZM20.82,1.71A18.27,18.27,0,0,1,25.87,8.3a15.23,15.23,0,0,0,1.75-1.8A15.1,15.1,0,0,0,20.82,1.71Z"/><path class="cls-1" d="M27.33,16.1h3.79s0-.08,0-.12a15.17,15.17,0,0,0-2.45-8.29q-.41-.61-.87-1.18a15.34,15.34,0,0,1-2,2,18,18,0,0,1,1.51,7.24Q27.33,15.94,27.33,16.1Z"/><path class="cls-2" d="M31.26,16.25H27.18V16.1q0-.16,0-.32a17.77,17.77,0,0,0-1.5-7.18l0-.1.08-.07a15.23,15.23,0,0,0,2-2l.11-.14.11.14c.31.38.6.78.88,1.19A15.33,15.33,0,0,1,31.27,16v.27ZM27.48,16H31a15,15,0,0,0-2.42-8.18c-.23-.35-.49-.7-.75-1A15.53,15.53,0,0,1,26,8.58a18.06,18.06,0,0,1,1.48,7.2Q27.48,15.87,27.48,16Z"/><path class="cls-1" d="M25.6,23.51a15.34,15.34,0,0,1,2.1,2.08,15.17,15.17,0,0,0,3.41-9.47H27.33A18,18,0,0,1,25.6,23.51Z"/><path class="cls-2" d="M27.71,25.82l-.11-.14a15.22,15.22,0,0,0-2.08-2.06l-.09-.07,0-.1a17.74,17.74,0,0,0,1.72-7.32V16h4.08v.15a15.32,15.32,0,0,1-3.45,9.56Zm-1.92-2.36a15.52,15.52,0,0,1,1.92,1.89A15,15,0,0,0,31,16.27H27.47A18,18,0,0,1,25.78,23.46Z"/><text class="cls-4" transform="translate(11.81 28.02)">€</text><text class="cls-4" transform="translate(16.66 28.02)">$</text><text class="cls-4" transform="translate(21.51 28.02)">£</text><text class="cls-4" transform="translate(6.96 28.02)">¥</text><path class="cls-2" d="M26.22,19.29H6.76a.39.39,0,0,1-.39-.39V5.53a.39.39,0,0,1,.39-.39H26.22a.39.39,0,0,1,.39.39V18.9A.39.39,0,0,1,26.22,19.29ZM7.15,18.51H25.83V5.92H7.15Z"/><path class="cls-2" d="M26.22,19.64H6.76A.74.74,0,0,1,6,18.9V5.53a.74.74,0,0,1,.74-.74H26.22a.74.74,0,0,1,.74.74V18.9A.74.74,0,0,1,26.22,19.64ZM6.76,5.48a0,0,0,0,0,0,0V18.9a0,0,0,0,0,0,0H26.22a0,0,0,0,0,0,0V5.53a0,0,0,0,0,0,0ZM26.17,18.85H6.81V5.58H26.17ZM7.5,18.16h18V6.27H7.5Z"/><path class="cls-2" d="M21.66,21.36H10.3a.49.49,0,0,1,0-1H21.66a.49.49,0,1,1,0,1Z"/><path class="cls-2" d="M21.66,21.7H10.3a.84.84,0,0,1,0-1.67H21.66a.84.84,0,0,1,0,1.67Zm-11.36-1a.15.15,0,0,0,0,.29H21.66a.15.15,0,0,0,0-.29Z"/><circle class="cls-2" cx="16.33" cy="15.9" r="0.69"/><path class="cls-2" d="M16.33,17.08a1.19,1.19,0,1,1,1.19-1.19A1.19,1.19,0,0,1,16.33,17.08Zm0-1.39a.2.2,0,1,0,.2.2A.2.2,0,0,0,16.33,15.69Z"/><path class="cls-2" d="M11.68,12.11a.49.49,0,0,1-.45-.68,5.62,5.62,0,0,1,10.33-.1.49.49,0,0,1-.9.4,4.63,4.63,0,0,0-8.52.08A.49.49,0,0,1,11.68,12.11Z"/><path class="cls-2" d="M13.49,13.65a.49.49,0,0,1-.39-.8,4.3,4.3,0,0,1,6.77,0,.49.49,0,1,1-.77.61,3.32,3.32,0,0,0-5.22,0A.49.49,0,0,1,13.49,13.65Z"/></g></g></svg>