<svg xmlns="http://www.w3.org/2000/svg" viewBox="0 0 32 30.9"><defs><style>.cls-1{fill:#21c6da;}.cls-2{fill:#979797;}</style></defs><title>scale</title><g id="Layer_2" data-name="Layer 2"><g id="scale"><rect class="cls-1" x="6.39" y="27.81" width="19.31" height="3.09"/><line class="cls-2" x1="16.17" x2="16.17" y2="28.58"/><rect class="cls-1" x="15.79" width="0.77" height="28.58"/><line class="cls-2" x1="30.46" y1="7.08" x2="1.88" y2="7.08"/><rect class="cls-1" x="1.88" y="6.69" width="28.58" height="0.77"/><path class="cls-1" d="M11.54,14.68S9,18.92,5.87,18.92.21,14.68.21,14.68Z"/><path class="cls-1" d="M31.88,14.68s-2.54,4.25-5.66,4.25-5.66-4.25-5.66-4.25Z"/><line class="cls-2" x1="5.87" y1="6.95" x2="0.21" y2="14.68"/><rect class="cls-1" x="-1.75" y="10.56" width="9.58" height="0.52" transform="translate(-7.48 6.87) rotate(-53.73)"/><line class="cls-2" x1="5.7" y1="6.89" x2="11.19" y2="14.74"/><rect class="cls-1" x="8.19" y="6.02" width="0.52" height="9.58" transform="translate(-4.67 6.79) rotate(-34.95)"/><line class="cls-2" x1="26.47" y1="7.21" x2="20.81" y2="14.93"/><rect class="cls-1" x="18.85" y="10.81" width="9.58" height="0.52" transform="translate(0.73 23.58) rotate(-53.73)"/><line class="cls-2" x1="26.3" y1="7.15" x2="31.79" y2="15"/><rect class="cls-1" x="28.79" y="6.28" width="0.51" height="9.58" transform="translate(-1.1 18.63) rotate(-34.94)"/></g></g></svg>